<svg width="60" height="41" viewBox="0 0 60 41" fill="none" xmlns="http://www.w3.org/2000/svg">
<path d="M60 39.7309C59.1268 40.1128 58.1628 40.112 57.2901 39.7285C56.4174 39.3451 55.6961 38.6057 55.2625 37.6497L46.6375 23.8585L45.3875 21.9305L35.38 37.667C34.9725 38.5829 34.2904 39.2958 33.4613 39.6725C32.6322 40.0491 31.7128 40.0638 30.875 39.7136L43.77 19.7104L31.775 1.64115C32.6375 1.28178 33.5808 1.27701 34.4459 1.62766C35.3111 1.97831 36.0453 2.66296 36.525 3.56631L45.465 17.528L54.455 3.62412C54.8657 2.72452 55.548 2.03078 56.3721 1.67477C57.1963 1.31876 58.1048 1.32531 58.925 1.69319L54.27 8.83592L47.965 18.3258C47.7899 18.5064 47.6498 18.7278 47.5539 18.9754C47.458 19.2229 47.4084 19.4912 47.4084 19.7625C47.4084 20.0338 47.458 20.302 47.5539 20.5496C47.6498 20.7972 47.7899 21.0185 47.965 21.1991L59.975 39.7338L60 39.7309ZM0.00502999 19.4619L1.05503 13.4638C3.94003 1.60358 15.7 -3.33072 23.79 4.01147C28.5275 8.31561 29.71 14.409 29.4775 21.2772H2.79003C2.35753 33.5421 10.0125 40.9479 19.8 37.164C21.3867 36.5037 22.8069 35.3986 23.9334 33.9477C25.06 32.4968 25.8576 30.7455 26.255 28.8506C26.7725 26.9254 27.625 26.5959 29.19 27.1509C28.9292 29.4992 28.2113 31.7485 27.0902 33.7297C25.9691 35.7109 24.4741 37.3724 22.7175 38.5891C19.8161 40.4242 16.4871 41.1515 13.2066 40.6671C9.92608 40.1827 6.86203 38.5114 4.45253 35.8922C2.0701 32.7916 0.63022 28.8752 0.35253 24.7401C0.35253 24.0608 0.15253 23.4249 0.01753 22.815C0.00536007 21.6983 -0.000473393 20.5815 2.99907e-05 19.4647L0.00502999 19.4619ZM2.82253 18.6351H26.9575C26.8075 9.74358 21.955 3.43623 15.4825 3.37842C8.27753 3.2628 3.12253 9.43139 2.80503 18.5947L2.82253 18.6351Z" fill="white"/>
</svg>
